<svg id="Layer_1" data-name="Layer 1" xmlns="http://www.w3.org/2000/svg" viewBox="0 0 806.87 640"><defs><style>.cls-1{fill:#253b8e;}</style></defs><path class="cls-1" d="M462,508" transform="translate(-136.56 -220)"/><path class="cls-1" d="M294.05,533.07a3.65,3.65,0,0,1-3.13,3.74c-13.27,1.87-57.27,1.22-71.61-12.93-13.76-13.58-37.19-101.44-37.19-101.44s37.47,64.79,63.9,80.13c20.31,11.8,36.87,14.4,43.91,14.06a3.62,3.62,0,0,1,3.73,3.56Z" transform="translate(-136.56 -220)"/><path class="cls-1" d="M294.06,547.65a3.63,3.63,0,0,0-3.13-3.73c-13.27-1.86-57.28-1.15-71.6,13-13.74,13.59-37.07,101.48-37.07,101.48s37.4-64.83,63.8-80.21c20.3-11.82,36.86-14.44,43.9-14.11a3.62,3.62,0,0,0,3.73-3.56Z" transform="translate(-136.56 -220)"/><circle class="cls-1" cx="36.24" cy="320.43" r="36.24"/><path class="cls-1" d="M786,547.36a3.65,3.65,0,0,1,3.13-3.74c13.27-1.88,57.27-1.22,71.61,12.93C874.45,570.12,897.88,658,897.88,658s-37.47-64.79-63.9-80.13c-20.31-11.8-36.87-14.4-43.91-14.06a3.62,3.62,0,0,1-3.73-3.55Z" transform="translate(-136.56 -220)"/><path class="cls-1" d="M785.94,532.77a3.65,3.65,0,0,0,3.13,3.74c13.27,1.85,57.28,1.15,71.6-13C874.41,509.9,897.74,422,897.74,422s-37.4,64.83-63.8,80.21c-20.3,11.82-36.86,14.44-43.9,14.11a3.62,3.62,0,0,0-3.73,3.56Z" transform="translate(-136.56 -220)"/><circle class="cls-1" cx="770.63" cy="319.99" r="36.24"/><path class="cls-1" d="M732,387.86a3.63,3.63,0,0,1,0-4.87c9-9.94,43.19-37.63,63.27-36,19.26,1.61,93.54,54.05,93.54,54.05s-70.28-25.73-100.4-20.58c-23.16,4-37.54,12.57-42.72,17.34a3.62,3.62,0,0,1-5.15-.33Z" transform="translate(-136.56 -220)"/><path class="cls-1" d="M722.69,376.67a3.64,3.64,0,0,0,4.8.86c11.38-7.07,44.71-35.81,46.63-55.87C776,302.42,737.56,220,737.56,220s12.83,73.74,2.41,102.46c-8,22.08-19.05,34.71-24.66,39a3.61,3.61,0,0,0-.59,5.12Z" transform="translate(-136.56 -220)"/><circle class="cls-1" cx="683.85" cy="84.52" r="36.24"/><path class="cls-1" d="M345.27,692.14a3.62,3.62,0,0,1,0,4.87c-9,9.94-43.17,37.65-63.25,36-19.26-1.6-93.57-54-93.57-54s70.3,25.71,100.42,20.55c23.15-4,37.52-12.59,42.71-17.36a3.62,3.62,0,0,1,5.14.33Z" transform="translate(-136.56 -220)"/><path class="cls-1" d="M354.63,703.33a3.64,3.64,0,0,0-4.8-.87c-11.37,7.09-44.69,35.83-46.61,55.89C301.39,777.59,339.82,860,339.82,860S327,786.26,337.38,757.54c8-22.09,19-34.71,24.64-39a3.61,3.61,0,0,0,.59-5.12Z" transform="translate(-136.56 -220)"/><circle class="cls-1" cx="120.37" cy="555.51" r="36.24"/><path class="cls-1" d="M357.45,377.35a3.63,3.63,0,0,1-4.79.86c-11.38-7.07-44.73-35.78-46.67-55.84-1.85-19.24,36.51-101.68,36.51-101.68s-12.79,73.74-2.35,102.46c8,22.08,19.06,34.69,24.68,39a3.61,3.61,0,0,1,.59,5.12Z" transform="translate(-136.56 -220)"/><path class="cls-1" d="M348.11,388.55a3.64,3.64,0,0,0,0-4.88c-9-9.93-43.21-37.61-63.29-35.92-19.26,1.62-93.51,54.1-93.51,54.1s70.27-25.77,100.39-20.63c23.16,3.94,37.54,12.54,42.73,17.31a3.62,3.62,0,0,0,5.15-.33Z" transform="translate(-136.56 -220)"/><circle class="cls-1" cx="123.13" cy="85.26" r="36.24"/><path class="cls-1" d="M725.72,703.34a3.64,3.64,0,0,1,4.8-.87c11.38,7.06,44.76,35.74,46.72,55.79C779.11,777.5,740.84,860,740.84,860s12.71-73.76,2.24-102.47C735,735.45,724,722.85,718.36,718.6a3.61,3.61,0,0,1-.59-5.12Z" transform="translate(-136.56 -220)"/><path class="cls-1" d="M735.06,692.13a3.64,3.64,0,0,0,0,4.88c9,9.92,43.25,37.56,63.32,35.85,19.26-1.63,93.46-54.2,93.46-54.2s-70.24,25.85-100.37,20.75c-23.16-3.93-37.55-12.52-42.75-17.28a3.62,3.62,0,0,0-5.14.34Z" transform="translate(-136.56 -220)"/><circle class="cls-1" cx="686.99" cy="555.33" r="36.24"/><polygon points="531.17 296.45 404.02 343.17 337.15 319.69 275.7 298.12 404.02 249.73 531.17 296.45"/><path d="M637.59,527s24.34,30.4,3.14,72.79,10.6,68.89,10.6,68.89l15.9-15.9c4.27.75-27.06-30.48-15.9-53,16-32.36-7.71-72.79-10.73-75.81Z" transform="translate(-136.56 -220)"/><path d="M462.76,542.07" transform="translate(-136.56 -220)"/><path d="M462.76,581.26V542.07l78.9,28.17v35.13C541.31,607.94,501.19,580.63,462.76,581.26Z" transform="translate(-136.56 -220)"/><path d="M620,581.26V542.07l-78.9,28.17v35.13C541.49,607.94,581.6,580.63,620,581.26Z" transform="translate(-136.56 -220)"/><path d="M385.66,235.64q5.61,31.14,11.21,62.29c-3.5.63-5.25.95-8.74,1.62q-5.94-31.08-11.86-62.17C380,236.67,381.9,236.32,385.66,235.64Z" transform="translate(-136.56 -220)"/><path d="M411.52,231.37Q416.25,262.66,421,294c-3.51.53-5.27.8-8.78,1.36q-5-31.23-10.07-62.47C405.87,232.23,407.75,231.94,411.52,231.37Z" transform="translate(-136.56 -220)"/><path d="M437.47,227.84q3.82,31.41,7.63,62.82c-3.52.43-5.28.65-8.8,1.12L428,229C431.8,228.54,433.69,228.3,437.47,227.84Z" transform="translate(-136.56 -220)"/><path d="M468.57,231.57c-8.88.78-13.31,1.22-22.16,2.22-.31-2.76-.47-4.14-.78-6.9,18.12-1.92,36.22-3.41,54.41-4.48.15,2.77.22,4.16.36,6.94-8.93.46-13.39.75-22.31,1.44q2.16,28.08,4.33,56.17c-3.58.27-5.36.42-8.94.73Q471,259.64,468.57,231.57Z" transform="translate(-136.56 -220)"/><path d="M508.27,222.86a144.44,144.44,0,0,1,20.17-2c10.16-.3,21.6,1.19,29.77,7.74,6.44,5.16,10,12.66,9.79,22.89s-4,18.79-10.53,24.43c-8.16,7-19.88,9.12-30.41,9.31-6.26.11-11.6.07-16.09-.21Zm11.34,55.57a88.26,88.26,0,0,0,9,.21c15.71.1,29.47-10.65,29.73-27,.26-16-14.68-25-29.36-24.28a74.53,74.53,0,0,0-11,1.14Z" transform="translate(-136.56 -220)"/><path d="M621.63,287.62c-1.77-1.94-3.46-3.87-5.91-6.7-6.33,4.58-13.14,6.17-20.56,5.86-10.32-.44-20.73-7.5-20.48-18.65.19-8.56,6.21-14.38,14.55-17.94v-.29c-3.51-4.29-5.58-9-5.4-13.48.3-7.69,7.07-15.38,19.31-14.64,9.19.56,15.87,6.37,15.24,14.51-.52,6.65-5.35,11.49-16.95,15.77l0,.28c5.65,6.55,11.82,14,15.91,18.81,3.56-4.14,6.27-10,8.34-17.86,3.38.3,5.07.46,8.44.78-2.86,9.73-6.62,17.28-12.23,22.36,3.39,3.87,6.64,7.75,10.3,12.17C628,288.19,625.85,288,621.63,287.62Zm-10-11.72c-6.12-7.09-12.32-14.1-18.54-21.1-3.9,2-9.42,5.77-9.69,12.43-.29,7.22,5.32,13,13.6,13.45A20.67,20.67,0,0,0,611.67,275.9Zm-19.2-39.85c-.22,4.5,2,8.09,4.86,11.64,7.43-3.26,12.38-6.29,12.74-11.63.27-3.84-1.93-8.34-7.91-8.69S592.71,231.18,592.47,236.05Z" transform="translate(-136.56 -220)"/><path d="M702.42,270.29c1-8.78,2.24-19.34,3.72-27.09l-.32,0c-3.75,6.87-8.07,14.12-13.05,22.15q-8.64,14.13-17,28.38c-2.67-.4-4-.6-6.67-1-2.23-10.5-4.67-20.95-7.13-31.4-2.2-9.28-4.08-17.74-5.23-25.44l-.21,0c-1.38,9.23-3,18.45-4.7,27.62-2,10.69-3,16-5,26.73-3.36-.39-5-.58-8.41-.94q5.77-31.22,11.82-62.37c4.84.55,7.25.83,12.08,1.44q4.26,16,8.25,32a205.32,205.32,0,0,1,4,22.11l.31.05a190.36,190.36,0,0,1,10.56-19.95q8.76-14.13,17.74-28.1c4.8.82,7.2,1.25,12,2.14q-3.52,31.53-7.32,63c-3.42-.66-5.12-1-8.54-1.59C700.55,286.9,701.18,281.36,702.42,270.29Z" transform="translate(-136.56 -220)"/><path d="M401.41,321l4.06-.72c1,5.72,1.49,8.59,2.49,14.31l.14,0c.62-1.29,1.27-2.49,1.88-3.59,3-5.11,4.57-7.66,7.71-12.74,2-.32,3-.48,5-.78-3.79,5.75-5.64,8.64-9.28,14.43,6,6,8.91,9.08,14.68,15.22l-4.63.72c-4.92-5.22-7.41-7.81-12.47-12.95-.95,1.5-1.42,2.26-2.36,3.76l2,11.32-3.9.69Q404.07,335.84,401.41,321Z" transform="translate(-136.56 -220)"/><path d="M443.78,344.91l-.68-2.67-.13,0a8.31,8.31,0,0,1-6.25,4.1c-4.42.62-7.12-2.08-7.58-5.18-.77-5.17,3.57-8.74,12.15-9.83l-.06-.45c-.23-1.77-1.16-4.91-5.73-4.27a11.51,11.51,0,0,0-5.59,2.42l-1.29-2.43a14.24,14.24,0,0,1,7.08-2.95c6.86-.95,9.1,3.34,9.65,7.65.41,3.21.61,4.81,1,8a30,30,0,0,0,1,5.1Zm-2-10.87c-4.4.49-9.27,2-8.67,6.11a3.53,3.53,0,0,0,4.28,3.19,5.53,5.53,0,0,0,4.82-4.31,3.65,3.65,0,0,0,.06-1.27Z" transform="translate(-136.56 -220)"/><path d="M451.57,328c-.26-2.22-.52-4-.87-5.8l3.62-.42.63,3.53h.1a8.28,8.28,0,0,1,7-4.86c3.11-.33,8.12,1,8.82,8.37.49,5.14.74,7.71,1.23,12.86l-4,.39-1.25-12.41c-.35-3.47-2-6.23-5.82-5.82a5.73,5.73,0,0,0-5,4.6,5.57,5.57,0,0,0-.07,1.85c.59,5.17.89,7.75,1.48,12.92l-4,.47C452.69,337.43,452.32,334.29,451.57,328Z" transform="translate(-136.56 -220)"/><path d="M494.12,339.1a15.45,15.45,0,0,1-6.21,1.7c-6.61.49-11.3-3.52-11.89-10.1s3.72-11.89,11.08-12.44a14,14,0,0,1,5.76.72c-.29,1.23-.44,1.85-.73,3.09a9.68,9.68,0,0,0-4.8-.69c-5.15.39-7.62,4.28-7.24,8.78.42,5,4,7.79,8.31,7.46a11.76,11.76,0,0,0,4.84-1.42Z" transform="translate(-136.56 -220)"/><path d="M496.9,307.92l4.15-.25c.3,5.4.46,8.09.76,13.48h.09a7.56,7.56,0,0,1,2.78-2.93,8.85,8.85,0,0,1,4.14-1.33c3-.14,7.95,1.45,8.23,8.91.2,5.15.29,7.72.49,12.87l-4,.16c-.22-5-.32-7.45-.54-12.42-.15-3.48-1.62-6.38-5.48-6.19a5.83,5.83,0,0,0-5.26,4.22,4.68,4.68,0,0,0-.17,1.89c.3,5.21.45,7.82.74,13l-4,.24Z" transform="translate(-136.56 -220)"/><path d="M526,328.28c.24,5.32,3.76,7.41,7.77,7.34a15.05,15.05,0,0,0,6.09-1.2c.29,1.12.43,1.68.71,2.81a18.37,18.37,0,0,1-7.29,1.44c-6.76.13-10.94-4.11-11.15-10.63s3.64-11.81,10.22-11.93c7.37-.14,9.38,6.09,9.41,10.07a14.37,14.37,0,0,1-.12,1.83C535.36,328.06,532.24,328.11,526,328.28Zm11.83-3c0-2.5-1.15-6.39-5.75-6.3-4.14.08-5.86,3.8-6.11,6.54C530.7,325.34,533.07,325.29,537.81,325.23Z" transform="translate(-136.56 -220)"/><path d="M549,328c.09,5.32,3.55,7.51,7.56,7.55a15,15,0,0,0,6.12-1l.63,2.83a18.53,18.53,0,0,1-7.33,1.24c-6.76-.07-10.82-4.42-10.84-10.95s4-11.7,10.55-11.63c7.37.07,9.21,6.35,9.12,10.33a14.29,14.29,0,0,1-.17,1.83C558.4,328,555.28,328,549,328Zm11.91-2.72c.09-2.5-1-6.42-5.57-6.46-4.14,0-6,3.63-6.29,6.36C553.82,325.18,556.19,325.2,560.93,325.27Z" transform="translate(-136.56 -220)"/><path d="M569.93,323.81c.07-2.77,0-5,0-7.06l3.69.1c0,1.49,0,2.23.07,3.72h.09a8.87,8.87,0,0,1,8.15-3.91c5.46.23,9.33,4.87,9,11.44-.41,7.76-5.42,11.35-10.59,11.14a7.83,7.83,0,0,1-6.65-3.65h-.09c-.15,4.7-.23,7.05-.38,11.75l-3.9-.11C569.55,337.86,569.68,333.18,569.93,323.81Zm3.84,5.88a8.31,8.31,0,0,0,.13,1.62,6.21,6.21,0,0,0,5.86,4.82c4.23.16,6.86-3.1,7.09-8.06.21-4.33-2-8.16-6.3-8.33a6.82,6.82,0,0,0-6.67,6.25C573.84,327.47,573.81,328.21,573.77,329.69Z" transform="translate(-136.56 -220)"/><path d="M614.2,334.92c-.19,2.22-.3,4.19-.3,5.89l-3.54-.28,0-3.54h-.09a8.37,8.37,0,0,1-7.56,3.48c-3.44-.23-7.46-2.36-7-9.94l.75-12.63,4.1.25c-.31,4.78-.46,7.17-.77,12-.26,4.1.83,6.94,4.47,7.2a5.83,5.83,0,0,0,5.55-3.18,5.55,5.55,0,0,0,.52-2c.41-5.29.62-7.94,1-13.23l4.09.32C615,325.51,614.72,328.64,614.2,334.92Z" transform="translate(-136.56 -220)"/><path d="M621.68,326.55c.23-2.54.38-4.73.42-6.74l3.58.33c-.1,1.7-.16,2.54-.26,4.24l.18,0a6.69,6.69,0,0,1,6.68-4.1,5,5,0,0,1,1.15.25l-.38,3.69a6.13,6.13,0,0,0-1.38-.27c-2.87-.3-5.11,1.6-5.94,4.48a9.82,9.82,0,0,0-.36,1.81l-1.1,11.48-3.94-.37Z" transform="translate(-136.56 -220)"/><path d="M647,344.25c0-1.1,0-1.65,0-2.75l-.14,0a8.32,8.32,0,0,1-7.08,2.4c-4.42-.51-6.35-3.81-6-6.93.56-5.2,5.65-7.56,14.23-6.45l.06-.44c.22-1.78.11-5.05-4.47-5.59a11.42,11.42,0,0,0-6,.94c-.26-1.07-.39-1.61-.64-2.68a14.23,14.23,0,0,1,7.59-1.07c6.87.81,8,5.53,7.4,9.83-.41,3.21-.62,4.82-1,8a29.16,29.16,0,0,0-.3,5.19Zm.77-11c-4.38-.64-9.46-.45-9.93,3.73a3.52,3.52,0,0,0,3.34,4.16,5.51,5.51,0,0,0,5.74-2.95,4,4,0,0,0,.39-1.22C647.5,335.45,647.59,334.71,647.78,333.22Z" transform="translate(-136.56 -220)"/><path d="M658.81,329.88c.3-2.21.51-4,.61-5.83l3.57.5c-.13,1.39-.19,2.09-.31,3.48l.14,0a7.76,7.76,0,0,1,7.6-2.91,6.61,6.61,0,0,1,5.65,5.26l.1,0A8.86,8.86,0,0,1,679.1,328a7.88,7.88,0,0,1,5.18-.68c3,.5,7,3.12,5.7,10.51-.89,5-1.34,7.53-2.23,12.55l-3.86-.68c.84-4.83,1.25-7.24,2.08-12.07.71-4.1-.43-6.84-3.69-7.38a5.24,5.24,0,0,0-5.35,2.75,6.36,6.36,0,0,0-.64,1.89l-2.11,13.2-3.87-.61c.8-5.13,1.2-7.69,2-12.81.53-3.41-.66-6.13-3.75-6.59a5.54,5.54,0,0,0-5.58,3.16,5.27,5.27,0,0,0-.59,1.86c-.74,5.17-1.1,7.76-1.84,12.93-1.55-.23-2.32-.33-3.88-.55Z" transform="translate(-136.56 -220)"/><path d="M401.12,806c-4.44,8-6.7,11.95-11.29,19.87-4-.71-5.93-1.07-9.88-1.83q18.75-31.14,36-63.09c4.26.68,6.39,1,10.66,1.63q6.91,35.7,15.49,71c-4.12-.48-6.17-.73-10.28-1.26-2.09-8.94-3.09-13.41-5-22.36C416.51,808.51,411.37,807.72,401.12,806Zm24.7-3.15c-1.73-8.19-2.55-12.29-4.14-20.49-.91-4.64-1.33-8.81-1.75-12.88l-.21,0c-1.64,3.85-3.41,7.78-5.41,11.68-4,7.38-6,11.06-10.13,18.39C412.82,801,417.15,801.61,425.82,802.83Z" transform="translate(-136.56 -220)"/><path d="M459.85,763.05c3.58.37,5.36.55,8.94.88l-6.66,71.72c-3.9-.36-5.85-.56-9.75-1Z" transform="translate(-136.56 -220)"/><path d="M523.81,825.77c-.11,5.07-.1,9.53.15,13.39-3.47-.07-5.2-.11-8.67-.22l-.3-8h-.22c-2.66,3.88-8.63,8.77-18.09,8.38-12.17-.5-17.83-11.36-17-22.63q1.07-14.31,2.12-28.63c3.69.28,5.53.4,9.22.63-.69,10.86-1,16.28-1.71,27.14-.58,9.31,2.11,15.82,10.93,16.25a13.78,13.78,0,0,0,13.07-7.58,12.14,12.14,0,0,0,1-4.53l1-30.12c3.69.13,5.53.18,9.22.26Q524.2,807.92,523.81,825.77Z" transform="translate(-136.56 -220)"/><path d="M539.85,803.54c0-5.07-.08-9.23-.39-13.29,3.23,0,4.85,0,8.08,0,.19,3.16.28,4.74.48,7.91h.31c2.83-4.68,7.47-9.07,15.85-9.3A15.26,15.26,0,0,1,579,798.16h.21a20.93,20.93,0,0,1,5.38-6.66,18.1,18.1,0,0,1,11-4.1c10.84-.71,18.45,9.77,18.45,20q1.23,14.4,2.48,28.81c-3.81.32-5.72.48-9.54.76-.83-11.08-1.24-16.63-2.08-27.71-.7-9.41-4.71-14.78-12.2-14.32a12.14,12.14,0,0,0-10.59,8.71,13.88,13.88,0,0,0-.53,4.49q.71,15.15,1.43,30.3c-3.82.18-5.73.26-9.55.4q-.54-14.7-1.07-29.4c-.28-7.81-4.08-13.33-11.15-13.17-5.81.14-10,4.64-11.43,9.12a11.62,11.62,0,0,0-.72,4.36l.25,29.63c-3.82,0-5.74,0-9.56,0Q539.79,821.46,539.85,803.54Z" transform="translate(-136.56 -220)"/><path d="M628.61,799c-.53-5-1.07-9.17-1.81-13.18,3.26-.34,4.89-.51,8.15-.89.57,3.2.86,4.8,1.45,8l.21,0c2-4.93,7.3-10.11,15.59-11.26,10.79-1.5,20.29,7.24,21,18q2.29,14.47,4.6,28.95c-3.88.62-5.82.91-9.7,1.48q-2.05-14-4.12-28c-1.15-7.83-5.15-13.86-13.86-12.71A13.36,13.36,0,0,0,638.83,800a12,12,0,0,0-.16,4.2q1.7,14.67,3.41,29.33c-3.9.45-5.84.66-9.74,1.07Q630.48,816.84,628.61,799Z" transform="translate(-136.56 -220)"/><path d="M692.54,762.24c.61,2.93-1.12,5.8-4.71,6.45a5.35,5.35,0,0,1-6.39-4.41,5.51,5.51,0,0,1,4.6-6.5A5.42,5.42,0,0,1,692.54,762.24Zm1,63.77q-4.29-24.18-8.59-48.35c3.65-.65,5.47-1,9.11-1.67q4.57,24.12,9.14,48.24C699.37,825,697.44,825.32,693.57,826Z" transform="translate(-136.56 -220)"/></svg>